<!--
The MIT License (MIT)

Copyright (c) 2016 Tim Holman

Permission is hereby granted, free of charge, to any person obtaining a copy of this software and associated documentation files (the "Software"), to deal in the Software without restriction, including without limitation the rights to use, copy, modify, merge, publish, distribute, sublicense, and/or sell copies of the Software, and to permit persons to whom the Software is furnished to do so, subject to the following conditions:

The above copyright notice and this permission notice shall be included in all copies or substantial portions of the Software.

THE SOFTWARE IS PROVIDED "AS IS", WITHOUT WARRANTY OF ANY KIND, EXPRESS OR IMPLIED, INCLUDING BUT NOT LIMITED TO THE WARRANTIES OF MERCHANTABILITY, FITNESS FOR A PARTICULAR PURPOSE AND NONINFRINGEMENT. IN NO EVENT SHALL THE AUTHORS OR COPYRIGHT HOLDERS BE LIABLE FOR ANY CLAIM, DAMAGES OR OTHER LIABILITY, WHETHER IN AN ACTION OF CONTRACT, TORT OR OTHERWISE, ARISING FROM, OUT OF OR IN CONNECTION WITH THE SOFTWARE OR THE USE OR OTHER DEALINGS IN THE SOFTWARE.
-->

<svg xmlns="http://www.w3.org/2000/svg"
     width="80"
     height="80"
     viewBox="0 0 250 250"
     style="fill:#151513; color:#f5f5f5;">
    <defs>
        <style type="text/css"><![CDATA[
        .octo-arm {
            animation: octocat-wave 560ms ease-in-out
        }

        @keyframes octocat-wave {
            0%, 100% {
                transform: rotate(0)
            }
            20%, 60% {
                transform: rotate(-25deg)
            }
            40%, 80% {
                transform: rotate(10deg)
            }
        }

        @media (max-width: 500px) {
            .octo-arm {
                animation: none
            }

            .octo-arm {
                animation: octocat-wave 560ms ease-in-out
            }
        }
    ]]></style>
    </defs>
    <path d="M0 0l115 115h15l12 27 108 108V0z"/>
    <path class="octo-arm"
          d="M128 109c-15-9-9-19-9-19 3-7 2-11 2-11-1-7 3-2 3-2 4 5 2 11 2 11-3 10 5 15 9 16"
          style="-webkit-transform-origin: 130px 106px; transform-origin: 130px 106px"
          fill="currentColor"/>
    <path class="octo-body"
          fill="currentColor"
          d="M115 115s4 2 5 0l14-14c3-2 6-3 8-3-8-11-15-24 2-41 5-5 10-7 16-7 1-2 3-7 12-11 0 0 5 3 7 16 4 2 8 5 12 9s7 8 9 12c14 3 17 7 17 7-4 8-9 11-11 11 0 6-2 11-7 16-16 16-30 10-41 2 0 3-1 7-5 11l-12 11c-1 1 1 5 1 5z"/>
</svg>
